<?xml version="1.0" encoding="iso-8859-1"?>
<!-- Generator: Adobe Illustrator 16.0.0, SVG Export Plug-In . SVG Version: 6.00 Build 0)  -->
<!DOCTYPE svg PUBLIC "-//W3C//DTD SVG 1.1//EN" "http://www.w3.org/Graphics/SVG/1.1/DTD/svg11.dtd">
<svg version="1.1" id="Capa_1" xmlns="http://www.w3.org/2000/svg" xmlns:xlink="http://www.w3.org/1999/xlink" x="0px" y="0px"
	 width="31.891px" height="31.891px" viewBox="0 0 31.891 31.891" style="enable-background:new 0 0 31.891 31.891;"
	 xml:space="preserve">
<g>
	<g>
		<path d="M26.039,9.648c2.66,0,4.824-2.163,4.824-4.824C30.863,2.163,28.699,0,26.039,0c-2.659,0-4.823,2.164-4.823,4.824
			C21.215,7.484,23.379,9.648,26.039,9.648z M26.039,2.234c1.429,0,2.591,1.162,2.591,2.59c0,1.428-1.162,2.59-2.591,2.59
			c-1.428,0-2.59-1.162-2.59-2.59C23.449,3.395,24.612,2.234,26.039,2.234z"/>
		<path d="M26.039,11.029c-2.659,0-4.823,2.165-4.823,4.824c0,2.661,2.164,4.825,4.823,4.825c2.66,0,4.824-2.164,4.824-4.825
			C30.864,13.193,28.699,11.029,26.039,11.029z M26.039,18.443c-1.428,0-2.59-1.161-2.59-2.59c0-1.427,1.162-2.589,2.59-2.589
			c1.429,0,2.591,1.162,2.591,2.589C28.629,17.282,27.467,18.443,26.039,18.443z"/>
		<path d="M26.039,22.243c-2.659,0-4.823,2.164-4.823,4.823c0,2.66,2.164,4.824,4.823,4.824c2.66,0,4.824-2.164,4.824-4.824
			C30.864,24.407,28.699,22.243,26.039,22.243z M26.039,29.657c-1.428,0-2.59-1.162-2.59-2.591c0-1.428,1.162-2.59,2.59-2.59
			c1.429,0,2.591,1.162,2.591,2.59C28.629,28.495,27.467,29.657,26.039,29.657z"/>
		<path d="M18.143,1.97H2.704c-0.925,0-1.675,0.76-1.675,1.686c0,0.925,0.75,1.684,1.676,1.684h15.438
			c0.926,0,1.676-0.759,1.676-1.684C19.819,2.73,19.069,1.97,18.143,1.97z"/>
		<path d="M18.143,12.658H2.704c-0.926,0-1.676,0.759-1.676,1.684c0,0.926,0.75,1.686,1.676,1.686h15.438
			c0.928,0,1.678-0.759,1.678-1.686C19.819,13.417,19.069,12.658,18.143,12.658z"/>
		<path d="M18.143,24.241H2.704c-0.926,0-1.676,0.731-1.676,1.657c0,0.927,0.75,1.658,1.676,1.658h15.438
			c0.928,0,1.678-0.731,1.678-1.658C19.819,24.973,19.069,24.241,18.143,24.241z"/>
		<path d="M18.143,8.762c0.615,0,1.117-0.516,1.117-1.132c0-0.616-0.502-1.132-1.117-1.132H2.704c-0.618,0-1.116,0.515-1.116,1.132
			c0,0.617,0.498,1.132,1.116,1.132H18.143z"/>
		<path d="M18.143,19.449c0.615,0,1.117-0.516,1.117-1.131c0-0.617-0.502-1.133-1.117-1.133H2.704c-0.618,0-1.116,0.516-1.116,1.133
			s0.498,1.131,1.116,1.131H18.143z"/>
		<path d="M18.143,28.768H2.704c-0.618,0-1.116,0.489-1.116,1.105c0,0.617,0.498,1.105,1.116,1.105h15.438
			c0.617,0,1.117-0.488,1.117-1.105C19.26,29.256,18.758,28.768,18.143,28.768z"/>
		<circle cx="26.037" cy="15.853" r="1.723"/>
	</g>
</g>
<g>
</g>
<g>
</g>
<g>
</g>
<g>
</g>
<g>
</g>
<g>
</g>
<g>
</g>
<g>
</g>
<g>
</g>
<g>
</g>
<g>
</g>
<g>
</g>
<g>
</g>
<g>
</g>
<g>
</g>
</svg>
