<?xml version="1.0" encoding="iso-8859-1"?>
<!-- Generator: Adobe Illustrator 19.0.0, SVG Export Plug-In . SVG Version: 6.00 Build 0)  -->
<svg version="1.1" id="Capa_1" xmlns="http://www.w3.org/2000/svg" xmlns:xlink="http://www.w3.org/1999/xlink" x="0px" y="0px"
	 viewBox="0 0 510.993 510.993" fill="#03CDD6" style="enable-background:new 0 0 510.993 510.993;" xml:space="preserve">
<path d="M509.723,363.662c0.152-0.227,0.291-0.461,0.417-0.703c0.02-0.038,0.046-0.071,0.065-0.11
	c0.011-0.022,0.019-0.046,0.03-0.068c0.064-0.13,0.119-0.265,0.175-0.398c0.041-0.097,0.085-0.194,0.122-0.292
	c0.045-0.121,0.08-0.244,0.118-0.367c0.036-0.113,0.075-0.226,0.105-0.34c0.028-0.109,0.048-0.221,0.071-0.331
	c0.027-0.128,0.059-0.256,0.079-0.385c0.018-0.112,0.026-0.226,0.038-0.34c0.014-0.127,0.033-0.254,0.04-0.381
	c0.008-0.128,0.005-0.258,0.006-0.386c0.001-0.113,0.007-0.226,0.003-0.338c-0.005-0.131-0.021-0.262-0.032-0.394
	c-0.01-0.112-0.016-0.224-0.031-0.335c-0.016-0.118-0.042-0.235-0.064-0.353c-0.023-0.125-0.043-0.251-0.073-0.376
	c-0.024-0.103-0.057-0.205-0.086-0.307c-0.039-0.138-0.077-0.277-0.124-0.413c-0.008-0.024-0.013-0.049-0.022-0.073l-40-112
	c-0.014-0.04-0.036-0.076-0.051-0.115c-0.096-0.253-0.205-0.503-0.33-0.75c-0.026-0.05-0.047-0.103-0.074-0.153
	c-0.009-0.017-0.015-0.034-0.024-0.051c-0.146-0.267-0.309-0.518-0.481-0.76c-0.04-0.056-0.084-0.11-0.126-0.165
	c-0.166-0.22-0.341-0.428-0.527-0.625c-0.041-0.043-0.08-0.088-0.122-0.13c-0.232-0.235-0.477-0.454-0.735-0.654
	c-0.007-0.006-0.013-0.013-0.021-0.019l-104-80c-0.047-0.036-0.099-0.063-0.146-0.098c-0.172-0.126-0.348-0.246-0.531-0.358
	c-0.091-0.055-0.183-0.106-0.276-0.157c-0.165-0.091-0.333-0.175-0.504-0.254c-0.088-0.04-0.175-0.082-0.265-0.119
	c-0.241-0.099-0.486-0.188-0.737-0.262c-0.02-0.006-0.038-0.014-0.058-0.02c-0.277-0.079-0.56-0.139-0.847-0.186
	c-0.023-0.004-0.045-0.011-0.068-0.015L256.65,144.085c-0.075-0.012-0.152-0.017-0.228-0.026c-0.004,0-0.008-0.001-0.012-0.002
	c-0.051-0.006-0.1-0.017-0.151-0.022c-0.017-0.002-0.034-0.001-0.051-0.003c-0.055-0.005-0.11-0.006-0.165-0.01
	c-0.115-0.009-0.23-0.014-0.347-0.017c-0.06-0.002-0.12-0.008-0.18-0.008c-0.007,0-0.013-0.001-0.02-0.001
	c-0.006,0-0.012,0.001-0.019,0.001c-0.06,0-0.119,0.006-0.179,0.007c-0.12,0.003-0.239,0.009-0.358,0.018
	c-0.051,0.004-0.103,0.004-0.154,0.009c-0.019,0.002-0.037,0.001-0.056,0.003c-0.029,0.003-0.057,0.01-0.086,0.013
	c-0.024,0.003-0.048,0.008-0.072,0.011c-0.078,0.01-0.156,0.015-0.233,0.027l-103.985,15.998c-0.023,0.004-0.046,0.011-0.069,0.015
	c-0.289,0.047-0.574,0.107-0.852,0.187c-0.004,0.001-0.009,0.003-0.013,0.004c-0.27,0.078-0.532,0.174-0.79,0.281
	c-0.077,0.032-0.152,0.068-0.228,0.102c-0.189,0.086-0.373,0.178-0.553,0.279c-0.079,0.044-0.157,0.087-0.234,0.133
	c-0.211,0.128-0.416,0.265-0.613,0.413c-0.026,0.02-0.054,0.034-0.08,0.054l-104,80c-0.007,0.006-0.013,0.013-0.021,0.019
	c-0.258,0.199-0.502,0.419-0.734,0.654c-0.042,0.043-0.082,0.088-0.123,0.132c-0.185,0.197-0.36,0.404-0.525,0.623
	c-0.042,0.056-0.086,0.11-0.127,0.167c-0.172,0.242-0.335,0.492-0.481,0.76c-0.009,0.017-0.016,0.034-0.024,0.051
	c-0.027,0.05-0.048,0.103-0.074,0.153c-0.125,0.247-0.234,0.497-0.33,0.75c-0.015,0.04-0.037,0.076-0.051,0.115l-40,112
	c-0.009,0.024-0.014,0.048-0.022,0.073c-0.047,0.136-0.085,0.275-0.124,0.413c-0.029,0.103-0.062,0.204-0.086,0.307
	c-0.03,0.124-0.05,0.25-0.073,0.376c-0.022,0.118-0.048,0.235-0.064,0.353c-0.015,0.111-0.021,0.223-0.031,0.335
	c-0.012,0.131-0.028,0.263-0.032,0.394c-0.004,0.112,0.002,0.226,0.003,0.338c0.001,0.129-0.002,0.258,0.006,0.386
	c0.008,0.127,0.026,0.254,0.04,0.381c0.013,0.113,0.021,0.227,0.038,0.34c0.02,0.129,0.052,0.256,0.079,0.385
	c0.024,0.11,0.043,0.222,0.071,0.331c0.03,0.114,0.069,0.227,0.105,0.34c0.038,0.123,0.074,0.246,0.118,0.367
	c0.036,0.098,0.081,0.195,0.122,0.292c0.056,0.134,0.111,0.268,0.175,0.398c0.011,0.022,0.019,0.046,0.03,0.068
	c0.019,0.039,0.045,0.072,0.065,0.11c0.126,0.241,0.264,0.475,0.416,0.701c0.041,0.061,0.079,0.123,0.121,0.183
	c0.178,0.25,0.37,0.49,0.578,0.718c0.046,0.051,0.096,0.097,0.144,0.146c0.173,0.178,0.355,0.348,0.546,0.51
	c0.064,0.054,0.127,0.108,0.193,0.16c0.473,0.374,0.997,0.694,1.568,0.95c0.085,0.038,0.172,0.072,0.258,0.107
	c0.1,0.041,0.195,0.087,0.297,0.124c0.133,0.047,0.267,0.084,0.401,0.124c0.05,0.015,0.098,0.032,0.148,0.046
	c0.293,0.08,0.587,0.14,0.882,0.183c0.057,0.009,0.114,0.015,0.171,0.022c0.308,0.038,0.615,0.064,0.92,0.064
	c0.001,0,0.003,0,0.004,0c0,0,0.001,0,0.001,0c0.341,0,0.684-0.032,1.027-0.079c0.096-0.013,0.191-0.032,0.286-0.05
	c0.251-0.045,0.501-0.104,0.75-0.175c0.097-0.028,0.193-0.053,0.288-0.085c0.277-0.092,0.551-0.201,0.821-0.328
	c0.047-0.022,0.097-0.039,0.144-0.062c0.011-0.005,0.022-0.009,0.032-0.014l124.535-62.268l116.516,62.142
	c0.016,0.009,0.032,0.017,0.048,0.026l0.017,0.009c0.012,0.006,0.024,0.01,0.035,0.016c0.238,0.126,0.485,0.237,0.738,0.336
	c0.076,0.03,0.152,0.056,0.228,0.083c0.157,0.056,0.316,0.109,0.478,0.155c0.051,0.014,0.101,0.029,0.152,0.042
	c0.076,0.02,0.152,0.038,0.228,0.055c0.172,0.039,0.346,0.069,0.522,0.096c0.063,0.01,0.125,0.025,0.188,0.034
	c0.045,0.006,0.089,0.01,0.134,0.015c0.209,0.023,0.423,0.033,0.637,0.038c0.061,0.001,0.123,0.011,0.184,0.011
	c0.002,0,0.004,0,0.006,0s0.004,0,0.006,0c0.061,0,0.123-0.01,0.184-0.011c0.214-0.006,0.427-0.015,0.637-0.038
	c0.045-0.005,0.089-0.01,0.134-0.015c0.063-0.008,0.124-0.024,0.187-0.034c0.176-0.027,0.35-0.057,0.522-0.096
	c0.077-0.018,0.153-0.036,0.23-0.056c0.05-0.013,0.1-0.027,0.149-0.042c0.162-0.046,0.321-0.099,0.478-0.155
	c0.077-0.028,0.154-0.054,0.23-0.084c0.252-0.1,0.499-0.21,0.737-0.336c0.012-0.006,0.024-0.01,0.035-0.016l0.017-0.009
	c0.016-0.009,0.032-0.017,0.048-0.026l116.516-62.142l124.535,62.268c0.01,0.005,0.021,0.009,0.032,0.014
	c0.048,0.024,0.098,0.04,0.146,0.063c0.27,0.126,0.542,0.235,0.819,0.327c0.095,0.031,0.192,0.058,0.289,0.085
	c0.249,0.072,0.499,0.13,0.75,0.175c0.095,0.017,0.19,0.036,0.286,0.05c0.342,0.048,0.685,0.079,1.027,0.079c0,0,0.001,0,0.001,0
	c0.001,0,0.003,0,0.004,0c0.305,0,0.613-0.026,0.921-0.064c0.057-0.007,0.114-0.013,0.171-0.022
	c0.295-0.043,0.589-0.103,0.883-0.184c0.049-0.013,0.096-0.03,0.145-0.045c0.135-0.04,0.27-0.077,0.404-0.125
	c0.103-0.037,0.199-0.084,0.3-0.125c0.085-0.035,0.17-0.068,0.254-0.105c0.572-0.257,1.097-0.578,1.571-0.952
	c0.065-0.051,0.127-0.104,0.19-0.158c0.193-0.163,0.376-0.334,0.55-0.514c0.047-0.048,0.095-0.093,0.141-0.143
	c0.209-0.228,0.401-0.469,0.579-0.72C509.645,363.784,509.683,363.722,509.723,363.662z M51.609,258.282l67.696,36.925
	L20.838,344.44L51.609,258.282z M237.045,161.923l-90.933,109.119l12.124-96.995L237.045,161.923z M352.757,174.047l12.124,96.995
	l-90.933-109.119L352.757,174.047z M247.997,257.734l-91.631,24.435l91.631-109.957V257.734z M262.997,172.211l91.631,109.957
	l-91.631-24.435V172.211z M369.168,184.397l80.633,62.026l-68.228,37.215L369.168,184.397z M129.421,283.638l-68.228-37.215
	l80.633-62.026L129.421,283.638z M247.997,273.258v73.738l-92.172-49.158L247.997,273.258z M262.997,273.258l92.172,24.579
	l-92.172,49.158V273.258z M459.385,258.282l30.771,86.158l-98.467-49.233L459.385,258.282z"/>
<g>
</g>
<g>
</g>
<g>
</g>
<g>
</g>
<g>
</g>
<g>
</g>
<g>
</g>
<g>
</g>
<g>
</g>
<g>
</g>
<g>
</g>
<g>
</g>
<g>
</g>
<g>
</g>
<g>
</g>
</svg>
